<svg width="930" height="198" viewBox="0 0 930 198" fill="none" xmlns="http://www.w3.org/2000/svg">
<path d="M443.76 2.18994C432.76 4.48994 407.16 11.9899 373.96 22.5899L359.46 27.1899L332.46 27.0899C304.16 26.8899 263.26 25.2899 117.96 18.6899C-8.7401 12.8899 -0.540095 13.0899 0.459905 14.7899C5.6599 23.5899 15.9599 30.6899 26.5599 32.5899C37.3599 34.6899 75.0599 38.2899 197.46 49.1899C231.56 52.2899 267.56 55.5899 277.46 56.6899C329.26 62.3899 339.96 67.3899 354.66 92.5899C369.46 118.09 376.46 128.39 388.56 142.09C403.46 158.99 430.56 179.49 454.26 191.69L464.96 197.19L475.66 191.69C499.06 179.69 526.46 158.99 541.36 142.09C553.46 128.39 560.46 118.09 575.26 92.5899C589.96 67.3899 600.66 62.3899 652.46 56.6899C662.36 55.5899 698.36 52.2899 732.46 49.1899C854.86 38.2899 892.56 34.6899 903.36 32.5899C913.96 30.6899 924.26 23.5899 929.46 14.7899C930.46 13.0899 938.66 12.8899 811.96 18.6899C694.46 23.9899 632.66 26.5899 601.96 27.2899C571.96 27.9899 576.46 28.7899 532.66 15.2899C493.66 3.18994 481.86 0.489938 466.96 0.0899385C457.56 -0.210062 453.26 0.189938 443.76 2.18994ZM491.16 20.7899C512.26 26.0899 538.46 34.7899 549.66 40.1899C560.86 45.6899 563.56 48.7899 563.26 56.1899C562.96 68.1899 547.56 103.29 535.16 120.59C527.56 131.29 512.26 147.09 500.46 156.59C490.96 164.29 469.46 178.49 466.16 179.39C462.06 180.39 439.16 165.19 421.76 149.99C404.06 134.49 390.66 116.99 380.36 95.9899C374.76 84.4899 367.46 64.2899 366.46 57.1899C365.16 48.5899 371.36 43.1899 390.96 35.5899C407.66 29.0899 441.86 19.3899 458.96 16.2899C464.26 15.3899 476.06 16.9899 491.16 20.7899Z" fill="black"/>
<path d="M392.86 61.99C388.16 65.09 386.26 71.09 388.16 76.89C390.46 84.39 398.96 87.69 407.86 84.59C410.86 83.49 410.96 83.29 410.96 77.59V71.69H406.46C402.06 71.69 400.46 73.19 403.46 74.29C404.36 74.69 404.96 76.19 404.96 78.29C404.96 81.39 404.76 81.69 401.96 81.69C394.86 81.69 391.36 72.29 396.06 66.19C397.96 63.89 398.86 63.59 402.36 63.89C404.66 64.19 407.26 64.69 408.26 65.09C409.66 65.79 409.96 65.39 409.96 63.39C409.96 60.59 407.96 59.69 400.86 59.69C397.76 59.69 395.16 60.39 392.86 61.99Z" fill="black"/>
<path d="M414.66 60.39C414.26 60.69 414.36 61.49 414.96 62.19C415.46 62.79 416.06 68.19 416.16 74.29L416.46 85.19L425.26 85.49C433.46 85.79 433.96 85.69 433.96 83.69C433.96 81.89 433.36 81.69 427.86 81.69H421.86L422.16 77.89C422.46 74.19 422.46 74.19 427.26 73.89C430.56 73.69 431.96 73.19 431.96 72.09C431.96 71.09 430.66 70.69 426.96 70.69H421.96V67.19V63.69H428.06C433.26 63.69 434.06 63.49 433.56 62.09C433.26 61.19 432.96 60.29 432.96 60.09C432.96 59.39 415.36 59.69 414.66 60.39Z" fill="black"/>
<path d="M437.36 60.8899C436.96 61.4899 437.16 62.2899 437.76 62.4899C438.56 62.6899 438.96 66.3899 438.96 74.3899C438.96 85.6899 438.96 85.7899 441.26 85.4899C443.26 85.1899 443.46 84.4899 443.96 78.2899L444.46 71.2899L450.26 78.5899C454.76 84.0899 456.66 85.6899 458.26 85.4899C460.36 85.1899 460.46 84.6899 460.46 72.6899C460.46 60.5899 460.36 60.1899 458.26 59.8899C456.16 59.5899 456.06 59.9899 455.76 67.5899L455.46 75.6899L449.16 67.6899C444.46 61.5899 442.36 59.6899 440.56 59.6899C439.16 59.6899 437.76 60.1899 437.36 60.8899Z" fill="black"/>
<path d="M464.96 61.0899C464.96 61.8899 465.46 62.8899 465.96 63.1899C466.56 63.5899 466.96 68.4899 466.96 74.7899V85.6899H475.46C483.26 85.6899 483.96 85.4899 483.96 83.6899C483.96 81.8899 483.26 81.6899 478.46 81.6899H472.96V77.6899V73.6899H477.96C481.76 73.6899 482.96 73.2899 482.96 72.1899C482.96 71.0899 481.76 70.6899 477.96 70.6899H472.96V67.1899V63.6899H478.56C483.26 63.6899 484.06 63.3899 483.76 61.8899C483.46 60.4899 482.06 60.1899 474.16 59.8899C466.56 59.6899 464.96 59.8899 464.96 61.0899Z" fill="black"/>
<path d="M491.16 60.6899C489.96 61.1899 488.46 62.7899 487.96 64.2899C486.46 68.1899 488.66 71.6899 494.46 74.8899C500.26 77.9899 501.16 80.9899 496.66 81.4899C495.06 81.6899 492.46 81.3899 490.86 80.7899C487.96 79.7899 487.86 79.8899 488.16 82.4899C488.46 85.0899 488.76 85.1899 494.56 85.4899C499.46 85.6899 501.06 85.3899 503.26 83.6899C508.36 79.6899 506.56 73.9899 498.96 70.1899C495.36 68.3899 493.96 67.0899 493.96 65.4899C493.96 63.5899 494.36 63.4899 499.46 63.9899C504.36 64.4899 504.96 64.2899 504.96 62.6899C504.96 61.6899 504.26 60.5899 503.36 60.2899C501.06 59.3899 493.86 59.6899 491.16 60.6899Z" fill="black"/>
<path d="M509.36 60.8899C508.96 61.4899 509.16 62.2899 509.76 62.4899C510.56 62.6899 510.96 66.3899 510.96 74.2899V85.6899H513.96H516.96V72.6899V59.6899H513.56C511.66 59.6899 509.76 60.1899 509.36 60.8899Z" fill="black"/>
<path d="M525.86 61.19C520.06 64.39 521.76 70.59 529.46 74.59C532.86 76.39 534.46 77.89 534.46 79.19C534.46 81.59 530.36 82.39 525.86 80.79C522.96 79.79 522.86 79.89 523.16 82.49C523.46 85.09 523.76 85.19 529.56 85.49C537.16 85.89 540.96 83.39 540.96 78.29C540.96 74.69 539.66 73.19 533.26 69.69C530.46 68.19 528.96 66.59 528.96 65.39C528.96 63.59 529.46 63.49 534.46 63.99C539.36 64.49 539.96 64.29 539.96 62.69C539.96 61.69 539.26 60.59 538.36 60.29C535.56 59.19 528.56 59.69 525.86 61.19Z" fill="black"/>
<path d="M29.1601 45.4899C29.3601 45.9899 32.8601 49.3899 36.9601 53.1899C66.5601 80.1899 88.1601 88.3899 142.96 93.0899C167.96 95.2899 202.06 97.3899 243.46 99.1899C263.26 100.09 281.86 101.29 284.86 101.89C288.56 102.59 291.26 103.89 293.86 106.19C295.86 107.99 297.16 109.79 296.86 110.09C296.26 110.69 224.16 109.49 183.46 108.19C170.66 107.79 164.76 107.89 165.46 108.59C167.76 110.89 217.76 124.89 245.36 130.99L259.46 134.09L298.46 134.19C340.76 134.29 340.46 134.29 345.86 139.99L348.16 142.49L343.86 143.09C338.96 143.69 311.46 145.69 307.86 145.69C306.46 145.69 305.96 146.09 306.56 146.59C307.66 147.79 343.16 157.49 358.96 161.09C373.66 164.29 398.96 168.99 399.46 168.49C399.66 168.29 397.36 166.09 394.26 163.69C381.36 153.39 366.76 135.69 347.86 107.69C338.06 93.0899 328.06 82.1899 321.16 78.3899C311.86 73.3899 290.76 69.6899 245.96 65.1899C129.76 53.7899 34.7601 44.6899 30.4601 44.6899C29.5601 44.6899 28.9601 45.0899 29.1601 45.4899Z" fill="black"/>
<path d="M857.96 48.2899C838.46 50.0899 799.26 53.8899 770.96 56.6899C742.66 59.4899 705.76 63.0899 688.96 64.7899C639.26 69.5899 618.36 73.1899 608.76 78.3899C601.86 82.1899 591.86 93.0899 582.06 107.69C563.16 135.69 548.56 153.39 535.66 163.69C532.56 166.09 530.26 168.29 530.46 168.49C530.96 168.99 556.26 164.29 570.96 161.09C586.76 157.49 622.26 147.79 623.36 146.59C623.96 146.09 623.46 145.69 622.06 145.69C618.46 145.69 590.96 143.69 586.06 143.09L581.76 142.49L584.06 139.99C589.46 134.29 589.16 134.29 631.46 134.19L670.46 134.09L684.56 130.99C712.06 124.89 762.16 110.89 764.46 108.59C765.16 107.89 759.36 107.79 746.96 108.19C707.76 109.39 633.66 110.69 633.06 110.09C632.76 109.79 634.06 107.99 636.06 106.19C638.66 103.89 641.36 102.59 645.06 101.89C648.06 101.29 666.66 100.09 686.46 99.1899C727.86 97.3899 761.86 95.2899 786.96 93.0899C841.66 88.3899 863.36 80.1899 892.96 53.1899C897.06 49.3899 900.66 45.9899 900.76 45.4899C901.26 44.2899 896.96 44.5899 857.96 48.2899Z" fill="black"/>
</svg>
